<svg xmlns="http://www.w3.org/2000/svg" viewBox="0 0 1200 800">
  <rect width="1200" height="800" fill="#eef0ea"/>
  <rect x="0" y="0" width="1200" height="800" fill="none" stroke="#c9d2c3" stroke-width="2"/>

  <!-- roads -->
  <path d="M0 400 H1200" stroke="#d8d2c0" stroke-width="46"/>
  <path d="M600 0 V800" stroke="#d8d2c0" stroke-width="46"/>
  <path d="M0 400 H1200" stroke="#f3efe4" stroke-width="4" stroke-dasharray="18 14"/>
  <path d="M600 0 V800" stroke="#f3efe4" stroke-width="4" stroke-dasharray="18 14"/>

  <!-- plots -->
  <g fill="#ffffff" stroke="#095e53" stroke-width="2" opacity="0.9">
    <rect x="70" y="70" width="180" height="130"/>
    <rect x="280" y="70" width="180" height="130"/>
    <rect x="70" y="230" width="180" height="130"/>
    <rect x="280" y="230" width="180" height="130"/>
    <rect x="70" y="470" width="180" height="130"/>
    <rect x="280" y="470" width="180" height="130"/>
    <rect x="70" y="630" width="180" height="130"/>
    <rect x="280" y="630" width="180" height="130"/>

    <rect x="750" y="70" width="180" height="130"/>
    <rect x="960" y="70" width="180" height="130"/>
    <rect x="750" y="230" width="180" height="130"/>
    <rect x="960" y="230" width="180" height="130"/>
    <rect x="750" y="470" width="180" height="130"/>
    <rect x="960" y="470" width="180" height="130"/>
    <rect x="750" y="630" width="180" height="130"/>
    <rect x="960" y="630" width="180" height="130"/>
  </g>

  <!-- green / central park -->
  <circle cx="600" cy="400" r="150" fill="#cfe0c8"/>
  <circle cx="600" cy="400" r="150" fill="none" stroke="#095e53" stroke-width="2"/>
  <g fill="#9db98f">
    <circle cx="560" cy="365" r="16"/>
    <circle cx="600" cy="345" r="20"/>
    <circle cx="645" cy="370" r="16"/>
    <circle cx="580" cy="430" r="18"/>
    <circle cx="630" cy="440" r="16"/>
  </g>

  <text x="600" y="404" text-anchor="middle" font-family="Georgia, serif" font-size="20" fill="#095e53">Central Park</text>

  <text x="600" y="760" text-anchor="middle" font-family="Georgia, serif" font-size="26" fill="#5c6b68">
    Indicative Master Plan — Placeholder
  </text>
</svg>
